inDegrees=no
num_controls=7
num_derivatives=13
num_iterations=163
num_multipliers=7
num_parameters=0
num_slacks=7
num_states=26
objective=5.860395
objective_accelerations=0.548350
objective_balance=0.044136
objective_effort=0.528540
objective_height=4.715382
objective_ligament=0.023988
solver_duration=1720.723512
status=Solve_Succeeded
success=true
DataType=double
version=3
OpenSimVersion=4.4-2022-07-23-0e9fedc
endheader
time	/jointset/ground_pelvis/pelvis_tilt/value	/jointset/ground_pelvis/pelvis_tx/value	/jointset/ground_pelvis/pelvis_ty/value	/jointset/hip_l/hip_flexion_l/value	/jointset/hip_l/hip_adduction_l/value	/jointset/hip_l/hip_rotation_l/value	/jointset/back/lumbar_extension/value	/jointset/patellofemoral_l/patellar_flexion_l/value	/jointset/knee_l/knee_flexion_l/value	/jointset/knee_l/knee_adduction_l/value	/jointset/knee_l/knee_rotation_l/value	/jointset/ankle_l/ankle_angle_l/value	/jointset/subtalar_l/subtalar_angle_l/value	/jointset/ground_pelvis/pelvis_tilt/speed	/jointset/ground_pelvis/pelvis_tx/speed	/jointset/ground_pelvis/pelvis_ty/speed	/jointset/hip_l/hip_flexion_l/speed	/jointset/hip_l/hip_adduction_l/speed	/jointset/hip_l/hip_rotation_l/speed	/jointset/back/lumbar_extension/speed	/jointset/patellofemoral_l/patellar_flexion_l/speed	/jointset/knee_l/knee_flexion_l/speed	/jointset/knee_l/knee_adduction_l/speed	/jointset/knee_l/knee_rotation_l/speed	/jointset/ankle_l/ankle_angle_l/speed	/jointset/subtalar_l/subtalar_angle_l/speed	/forceset/tau_hip_flexion_l	/forceset/tau_hip_adduction_l	/forceset/tau_hip_rotation_l	/forceset/tau_knee_flexion_l	/forceset/tau_ankle_angle_l	/forceset/tau_subtalar_angle_l	/forceset/tau_lumbar_extension	lambda_cid13_p0	lambda_cid13_p1	lambda_cid13_p2	lambda_cid13_p3	lambda_cid13_p4	lambda_cid13_p5	lambda_cid14_p0	/jointset/ground_pelvis/pelvis_tilt/accel	/jointset/ground_pelvis/pelvis_tx/accel	/jointset/ground_pelvis/pelvis_ty/accel	/jointset/hip_l/hip_flexion_l/accel	/jointset/hip_l/hip_adduction_l/accel	/jointset/hip_l/hip_rotation_l/accel	/jointset/back/lumbar_extension/accel	/jointset/patellofemoral_l/patellar_flexion_l/accel	/jointset/knee_l/knee_flexion_l/accel	/jointset/knee_l/knee_adduction_l/accel	/jointset/knee_l/knee_rotation_l/accel	/jointset/ankle_l/ankle_angle_l/accel	/jointset/subtalar_l/subtalar_angle_l/accel	gamma_cid13_p0	gamma_cid13_p1	gamma_cid13_p2	gamma_cid13_p3	gamma_cid13_p4	gamma_cid13_p5	gamma_cid14_p0
0	-0.0367795595864581	0.05665878142905349	0.9203423548705171	0.3085811930696054	-0.2956283306081026	-0.3013371649023773	-0.3879500408040475	0.2499276582270791	0.249927658227084	-0.1745329251994329	-0.1742680305429374	-0.0008036543073733089	0.0004467275483081724	0	0	0	0	0	0	0	0	0	0	0	0	0	0.07627550557631435	-0.03622834571246063	-0.01908455950976895	-0.2353872980434397	0.1688711800647984	-0.02187588287068322	-0.004394230578547476	10.43056983577255	4.853546641234733	1.99397320205013	22.02369543636735	-618.413759674337	-65.81882957398523	-23.18788443276625	-1.601348920230741	-2.387369943173927	-1.003869415250899	10.10707699543142	-0.9344145791924396	3.197354831631471	-7.453950784081703	8.926091414838739	8.926091414838917	0.9217857486983034	-0.1247417870522982	0.8080921563388531	-0.7279264836535455	3.014173055612006e-09	1.159716703930237e-07	7.346981318624083e-08	-2.256373998611886e-08	1.446405505197173e-07	1.759611097414862e-08	-4.969342972408526e-09
0.01	-0.03685534571315945	0.05654143507517578	0.9202932806895614	0.309073858288587	-0.295675045378066	-0.3011766417993872	-0.388320920834393	0.2503649747449238	0.2503649747449777	-0.1744900350470767	-0.1742708445553498	-0.0007642757504700171	0.0004099741612152581	-0.01508427153110303	-0.02328737088957281	-0.009770664327229483	0.09798889946516855	-0.009274669837133147	0.0319776681532505	-0.07361549844370491	0.08705205996736597	0.0870520599673673	0.008570662260887306	-0.0005214561694995634	0.007938928850148561	-0.007256910338627513	0.07094407366134646	-0.04811808106443312	-0.01851623882668844	-0.232707750648916	0.1638292675837568	-0.007834503040904281	0.001155371779679488	9.232522847267122	-0.9229117742809625	2.787032406099903	20.37627361231085	-621.5014029121869	-77.51000011578606	-23.19308547410557	-1.4510324211868	-2.272140191395992	-0.9570102337549777	9.563168440211296	-0.913776805814433	3.178923834719608	-7.231273230892625	8.533077740274699	8.53307774027491	0.823606784676827	-0.009636110264712582	0.7962795211508527	-0.7105354640580211	-2.919904661749081e-08	1.318487561553187e-07	1.364965885020183e-07	1.071425935787606e-08	1.892838075636559e-08	-1.62672248758459e-08	-1.162488343757756e-08
0.02	-0.03707978778549798	0.05619667110649332	0.9201478308068739	0.3105300869058538	-0.2958124635703664	-0.3007001518093547	-0.3894111406204498	0.2516604747530249	0.2516604747530255	-0.1743616575524958	-0.1742776308450376	-0.0006436106507054657	0.0003034592397179301	-0.02973118912769126	-0.04548352296095395	-0.01927514034633727	0.1927126796564061	-0.01814068446788718	0.06319337740842207	-0.1438679511425376	0.1716366980382971	0.1716366980383028	0.01709733731749103	-0.0007944554736399387	0.01625730857221769	-0.01395230688088055	0.0656126417463908	-0.06000781641642217	-0.01794791814415002	-0.2300282032543176	0.1587873551027124	0.006206876788863621	0.006704974137924656	8.103457340957121	-6.710354936773352	3.580593685354627	18.66015992562977	-623.52712940344	-89.12020264998704	-23.20831028873431	-1.513878133327891	-2.169126179535482	-0.9506317536265588	9.454053140645188	-0.8526835379166323	3.044963052015695	-6.781341635107323	8.432607035551747	8.432607035552522	0.9129883078415524	-0.07505041398044156	0.8839823307230855	-0.6156237243786223	-6.141226629059362e-08	1.477258419176138e-07	1.995233638177957e-07	4.399225870187098e-08	-1.067837890069861e-07	-5.013056072584041e-08	-1.82804239027466e-08
0.03	-0.03744864172220224	0.05563497327038358	0.9199083711287772	0.3129181034289792	-0.2960364874254963	-0.2999160746826899	-0.3911876122774882	0.2537897408804649	0.253789740880447	-0.1741483526740354	-0.1742867067599092	-0.0004384889050673375	0.0001325959684078766	-0.04395329419155365	-0.06671670294866154	-0.02859765951691576	0.2843984472374793	-0.02660291010750844	0.09345839086740618	-0.2109494777133426	0.2538220644011522	0.2538220644011512	0.02552365732886655	-0.001022912114230572	0.02476825689870714	-0.02015560942140288	0.05899770667734126	-0.05234432214769023	-0.01724463391969368	-0.2250427268279014	0.1558939505611236	0.002620393352591178	0.01265919186587146	7.001860817287147	-5.040211883497081	3.406104318520594	18.3078197602136	-624.9756645399226	-84.71863057665658	-23.23284384564638	-1.363439021744223	-2.079503778320627	-0.9202135000361383	8.952001231425056	-0.8338581896651964	2.992697268821217	-6.600022785469641	8.052335662612073	8.052335662610606	0.8014986950208393	0.002959860414111449	0.8348331866930685	-0.6130189176514269	-8.209922369754787e-08	1.35822766919472e-07	2.506646858906475e-07	6.243544095551437e-08	-1.911729695033194e-07	-7.800077111251762e-08	-2.602854429102864e-08
0.04	-0.03795712917531083	0.0548651256604107	0.9195762559587218	0.3162082101608392	-0.2963433067595596	-0.2988342620662414	-0.3936205921237153	0.2567290275167027	0.2567290275167047	-0.1738519756260266	-0.1742981266113156	-0.0001482212555481216	-9.836740805987559e-05	-0.05765789240857686	-0.08711347773358134	-0.03780623873807024	0.3731307214020232	-0.03469978025434499	0.1227404753656474	-0.2751695889802674	0.3336407998023919	0.3336407998023801	0.03371177122965649	-0.001263242774315255	0.0332864893484454	-0.02597232791241857	0.0523827716083379	-0.04468082787894206	-0.01654134969503612	-0.2200572504014912	0.1530005460195425	-0.0009660900836645393	0.01861340959384384	5.964357930750053	-3.378576694766634	3.229870630293894	17.8826622622413	-625.456258885941	-80.23816035302448	-23.26589799734112	-1.410376763960157	-2.001845138977815	-0.9278437637417523	8.8633544573393	-0.7796124393596935	2.848377259867137	-6.20905857433134	7.959280843228614	7.959280843228607	0.865347085724412	-0.07742521787922614	0.8854391553729687	-0.5383069144772588	-1.025485262124166e-07	1.233469051015273e-07	3.015609470718926e-07	8.057275069183092e-08	-2.747101296023946e-07	-1.057474119020131e-07	-3.37991921004058e-08
